<svg width="24" height="24" viewBox="0 0 24 24" fill="none" xmlns="http://www.w3.org/2000/svg">
    <path fill-rule="evenodd" clip-rule="evenodd" d="M4.00059 6.875C4.02653 6.46195 4.36435 6.12358 4.80274 6.1235H8.23343L9.10184 4.71044L9.10436 4.70648C9.38467 4.26599 9.85156 4 10.379 4H13.3778C13.8976 4 14.3873 4.26008 14.6558 4.7119L15.5224 6.10732H18.9702C19.3889 6.10732 19.7569 6.44607 19.7569 6.89394C19.7569 7.31264 19.4181 7.68055 18.9702 7.68055H18.3936L17.1452 18.0634C17.0307 19.1752 16.0884 20 14.9827 20H8.79047C7.68279 20 6.74346 19.1738 6.6119 18.0655L5.36322 7.68044H4.78662C4.36792 7.68044 4 7.34169 4 6.89382V6.8844L4.00059 6.875ZM6.95633 7.68047L8.16462 17.8813L8.16511 17.8857C8.19679 18.192 8.46315 18.4269 8.79044 18.4269H14.9826C15.2958 18.4269 15.563 18.1881 15.609 17.8772L16.8326 7.68047H6.95633ZM10.4218 5.57312H13.3507L13.6861 6.1235H10.0778L10.4218 5.57312ZM10.4607 17.4646L10.4513 17.4652H10.4094C9.9944 17.4652 9.65029 17.1506 9.62342 16.7308L9.62336 16.7299L9.16959 10.118L9.16947 10.1161C9.14367 9.70217 9.4526 9.30589 9.90485 9.27888C10.3182 9.25336 10.7139 9.56171 10.7415 10.0132L11.1953 16.6256L11.1955 16.6286C11.2214 17.071 10.8833 17.4381 10.4607 17.4646ZM13.3617 17.4652H13.3199L13.3106 17.4647C12.8878 17.4383 12.5497 17.071 12.5756 16.6286L13.0296 10.0138L13.0296 10.0128C13.0565 9.59043 13.4236 9.25296 13.8656 9.27886L13.8667 9.27893C14.2896 9.30529 14.6277 9.67256 14.6017 10.115L14.1478 16.7299L14.1477 16.7309C14.1208 17.1504 13.7768 17.4652 13.3617 17.4652Z" fill="#1F1F1F"/>
</svg>
