<svg width="24" height="24" viewBox="0 0 24 24" fill="none" xmlns="http://www.w3.org/2000/svg">
    <path d="M4.72322 8.60236C4.3513 8.22758 4.3513 7.61994 4.72322 7.24516C5.09515 6.87038 5.69816 6.87038 6.07009 7.24516L8.09686 9.28748C8.37736 9.1797 8.66088 9.08217 8.94721 8.99519C9.64701 8.78259 10.3475 8.64075 11.0474 8.57085V5.95968C11.0474 5.42967 11.4738 5 11.9998 5C12.5257 5 12.9521 5.42967 12.9521 5.95968V8.55943C14.0652 8.65809 15.1697 8.94241 16.2609 9.4139L18.3602 7.29849C18.7321 6.92371 19.3351 6.92371 19.7071 7.29849C20.079 7.67327 20.079 8.28091 19.7071 8.65569L18.0272 10.3485C19.2515 11.1172 20.4536 12.1281 21.63 13.3817C22.1174 13.8981 22.1249 14.7275 21.6428 15.248C19.7847 17.2621 17.476 18.7978 14.9428 19.5409C10.5644 20.8254 6.29264 19.4207 2.36966 15.2438C1.89151 14.7368 1.87455 13.9287 2.33434 13.4023C3.47075 12.109 4.80325 10.9954 6.2674 10.1584L4.72322 8.60236ZM11.9998 10.4458C11.9509 10.4458 11.9023 10.4421 11.938 10.4404C11.1293 10.4528 10.3158 10.5841 9.49701 10.8329C7.4944 11.4412 5.63169 12.677 4.10786 14.293C7.44269 17.6716 10.8682 18.7372 14.4103 17.6981C16.4284 17.1061 18.32 15.9012 19.883 14.3228C17.3147 11.716 14.7229 10.4538 12.1085 10.4396C12.0725 10.4437 12.0362 10.4458 11.9998 10.4458ZM13.4369 14.2685C13.4369 13.5232 12.8374 12.9191 12.0977 12.9191C11.358 12.9191 10.7586 13.5232 10.7586 14.2685C10.7586 15.0139 11.358 15.618 12.0977 15.618C12.8374 15.618 13.4369 15.0139 13.4369 14.2685ZM15.1956 14.2685C15.1956 15.9927 13.8087 17.3902 12.0977 17.3902C10.3867 17.3902 8.99984 15.9927 8.99984 14.2685C8.99984 12.5444 10.3867 11.1469 12.0977 11.1469C13.8087 11.1469 15.1956 12.5444 15.1956 14.2685Z" fill="#333333"/>
</svg>
